<svg width="24" height="25" viewBox="0 0 24 25" fill="none" xmlns="http://www.w3.org/2000/svg">
<path fill-rule="evenodd" clip-rule="evenodd" d="M19.051 9.7635L15.577 15.2735C15.023 16.1495 13.841 16.3675 13.011 15.7475L10.249 13.6755C9.995 13.4835 9.647 13.4875 9.395 13.6775L5.665 16.5095C5.167 16.8875 4.513 16.2895 4.849 15.7615L8.325 10.2515C8.877 9.3755 10.061 9.1555 10.889 9.7775L13.653 11.8495C13.907 12.0395 14.255 12.0375 14.507 11.8475L18.237 9.0155C18.735 8.6375 19.387 9.2355 19.051 9.7635ZM11.951 0.9375C5.287 0.9375 0.125 5.8175 0.125 12.4095C0.125 15.8575 1.537 18.8355 3.841 20.8935C4.031 21.0675 4.149 21.3075 4.159 21.5675L4.223 23.6715C4.245 24.3415 4.935 24.7775 5.549 24.5095L7.897 23.4735C8.095 23.3855 8.317 23.3695 8.525 23.4255C9.603 23.7235 10.755 23.8795 11.951 23.8795C18.613 23.8795 23.775 18.9995 23.775 12.4095C23.775 5.8175 18.613 0.9375 11.951 0.9375Z" fill="white"/>
</svg>
