<?xml version="1.0" encoding="utf-8"?><svg viewBox="0 0 128 62" xmlns="http://www.w3.org/2000/svg" xmlns:xlink="http://www.w3.org/1999/xlink"><style>:root>svg{display:none}:root>svg:target{display:block}</style><svg fill="none" viewBox="0 0 128 62" id="logo" xmlns="http://www.w3.org/2000/svg"><path d="M11.367 61.852v-4.668H10.34v-.745h1.027v-.681c0-.642.164-1.13.493-1.466.329-.335.785-.502 1.367-.502.344 0 .644.037.904.114v.767a3.052 3.052 0 00-.784-.104c-.743 0-1.114.378-1.114 1.131v.743h1.86v.745h-1.86v4.669h-.866v-.003zm4.066 0V56.44h.867v.941a2.03 2.03 0 01.658-.787c.267-.183.575-.275.927-.275.168 0 .328.015.482.048v.86a4.524 4.524 0 00-.554-.038c-.397 0-.722.122-.968.362-.247.24-.43.562-.547.965v3.335h-.865v.002zm6.805.122c-.545 0-1.016-.122-1.416-.364a2.46 2.46 0 01-.924-1c-.218-.426-.327-.911-.327-1.458 0-.55.11-1.038.327-1.463.218-.426.526-.758.924-1 .398-.243.871-.365 1.416-.365h.109c.544 0 1.015.122 1.415.364.398.242.707.578.925 1 .217.426.326.913.326 1.464 0 .547-.109 1.034-.326 1.457a2.46 2.46 0 01-.925 1c-.398.243-.87.364-1.415.364h-.11zm.004-.796h.098c.544 0 .976-.185 1.293-.556.318-.37.478-.861.478-1.474 0-.617-.16-1.109-.478-1.477-.317-.368-.748-.553-1.293-.553h-.098c-.544 0-.975.185-1.293.553-.318.368-.478.86-.478 1.477 0 .613.16 1.104.478 1.474.318.37.749.556 1.293.556zm4.54.674V56.44h.867v1.007c.198-.348.449-.623.758-.824.306-.2.664-.302 1.069-.302h.108c.907 0 1.492.432 1.75 1.294a2.57 2.57 0 01.815-.946c.335-.231.72-.348 1.155-.348h.116c.613 0 1.082.205 1.407.613.324.407.484.992.484 1.75v3.172h-.867v-3.049c0-1.124-.415-1.686-1.244-1.686h-.098c-.39 0-.726.128-1.009.386a2.214 2.214 0 00-.613.978v3.368h-.867v-3.046c0-1.124-.413-1.686-1.24-1.686h-.104c-.391 0-.727.128-1.007.386a2.23 2.23 0 00-.61.978v3.368h-.87zm21.542-7.804v1.04c0 .068-.046.112-.113.112h-4.504v2.127h3.717c.07 0 .114.047.114.113v1.04c0 .068-.047.112-.114.112h-3.717v3.146c0 .068-.047.112-.114.112h-1.129c-.069 0-.113-.046-.113-.112v-7.69c0-.069.047-.113.114-.113h5.746c.069 0 .113.046.113.112zm9.192 7.804h-1.243c-.069 0-.113-.033-.13-.101a29.32 29.32 0 00-.594-2.026h-3.816c-.229.69-.426 1.376-.586 2.026-.018.068-.063.101-.131.101h-1.198c-.08 0-.125-.046-.102-.123.717-2.522 1.813-5.305 2.92-7.646.05-.108.113-.148.222-.148h1.62c.109 0 .17.04.222.148 1.118 2.336 2.196 5.124 2.92 7.646.022.08-.024.123-.104.123zm-2.39-3.348a46.867 46.867 0 00-1.35-3.326h-.27a47.54 47.54 0 00-1.357 3.326h2.978zm4.43-.542c0-2.455 1.63-4.175 3.957-4.175h.171c1.46 0 2.59.736 3.187 1.799.04.068.029.123-.04.159l-1.004.491c-.07.033-.154.033-.2-.05-.422-.723-1.056-1.11-1.99-1.11h-.17c-1.465 0-2.476 1.154-2.476 2.829 0 1.68.991 2.806 2.476 2.806h.17c.959 0 1.516-.322 1.945-.814.058-.061.12-.072.19-.04l1.03.499c.04.022.058.05.058.08 0 .028-.011.05-.033.083-.634.917-1.774 1.481-3.165 1.481h-.17c-2.368 0-3.936-1.611-3.936-4.038zm16.4 2.738v1.04c0 .068-.047.112-.114.112h-5.986c-.07 0-.114-.046-.114-.112v-7.69c0-.069.047-.113.114-.113h5.884c.069 0 .113.047.113.113v1.04c0 .068-.046.112-.113.112h-4.642v2.06h3.775c.07 0 .114.045.114.111v1.03c0 .068-.047.112-.114.112h-3.775v2.07h4.744c.067 0 .114.046.114.115zm10.306-1.019c0 1.387-1.07 2.171-2.964 2.171h-3.922c-.07 0-.114-.046-.114-.112v-7.69c0-.069.047-.113.114-.113h3.575c1.842 0 2.845.723 2.845 2.048 0 .87-.445 1.441-1.347 1.708 1.267.262 1.813 1.016 1.813 1.988zm-3.34-4.514h-2.304v2.127h2.304c1.031 0 1.505-.333 1.505-1.062 0-.73-.474-1.065-1.505-1.065zm1.95 4.395c0-.736-.492-1.069-1.57-1.069h-2.684v2.127h2.684c1.096 0 1.57-.317 1.57-1.058zm3.78-1.668c0-2.387 1.595-4.107 4.104-4.107h.17c2.51 0 4.105 1.72 4.105 4.107 0 2.387-1.596 4.106-4.104 4.106h-.171c-2.507 0-4.105-1.72-4.105-4.106zm4.277 2.817c1.635 0 2.669-1.114 2.669-2.817 0-1.702-1.031-2.817-2.67-2.817h-.17c-1.636 0-2.67 1.113-2.67 2.817 0 1.701 1.032 2.817 2.67 2.817h.17zm6.42-2.817c0-2.387 1.595-4.107 4.104-4.107h.171c2.509 0 4.104 1.72 4.104 4.107 0 2.387-1.595 4.106-4.104 4.106h-.171c-2.509 0-4.104-1.72-4.104-4.106zm4.275 2.817c1.636 0 2.669-1.114 2.669-2.817 0-1.702-1.031-2.817-2.669-2.817h-.171c-1.635 0-2.669 1.113-2.669 2.817 0 1.701 1.032 2.817 2.669 2.817h.171zm13.94 1.141h-1.471c-.097 0-.138-.022-.2-.097a30.894 30.894 0 00-3.289-3.286h-.662v3.269c0 .068-.047.112-.113.112H110.7c-.069 0-.113-.046-.113-.112v-7.69c0-.069.046-.113.113-.113h1.129c.068 0 .113.046.113.112v3.122h.674c1.11-.997 2.138-2.07 2.975-3.15.058-.073.102-.084.171-.084h1.392c.069 0 .101.033.101.08 0 .021-.01.05-.04.083-1.226 1.499-2.439 2.727-3.564 3.677a34.192 34.192 0 013.974 3.936c.064.073.03.141-.061.141zM128 0h-6.794v36.002H128V0zM96.216 22.526c0-4.474 2.837-7.893 7.4-7.893 4.36 0 7.451 3.368 7.451 7.893 0 4.576-2.941 7.944-7.451 7.944-4.41 0-7.4-3.368-7.4-7.944zm14.955 13.476h6.489V9.101h-6.591v2.413c-1.369-1.507-4.258-2.865-7.858-2.865-8.262 0-13.789 5.934-13.789 13.877 0 8.347 5.576 13.928 13.789 13.928 4.36 0 6.944-1.81 7.958-3.117v2.665h.002zM83.593 4.576H76.8V9.1h-2.635v5.984H76.8V28.51c0 5.33 2.838 7.744 8.262 7.744 1.825 0 3.194-.201 3.447-.252V30.07h-1.471c-2.585 0-3.447-1.005-3.447-3.62V15.086h4.765V9.101H83.59V4.576h.002zM72.39 9.05c-.151-.05-.404-.101-.913-.101-2.84 0-3.905 1.71-4.36 2.363V9.1h-6.338v26.901h6.793v-16.14c0-2.716 1.064-4.325 4.816-4.576V9.05h.002zM36.853 22.577c0-4.525 2.89-7.845 7.351-7.845 4.36 0 7.403 3.368 7.403 7.845 0 4.476-2.89 7.794-7.352 7.794-4.36-.002-7.402-3.269-7.402-7.794zm-6.793.048c0 7.944 5.678 13.827 14.144 13.827 8.365 0 14.194-6.033 14.194-13.928 0-7.944-5.627-13.877-14.194-13.877-8.162.002-14.144 5.984-14.144 13.978zm-23.469-.048c0-4.576 2.84-7.944 7.451-7.944 4.511 0 7.502 3.368 7.502 7.944 0 4.576-2.837 7.895-7.45 7.895-4.512-.002-7.503-3.32-7.503-7.895zm.202 11.311c1.267 1.107 3.905 2.564 7.656 2.564 8.618 0 13.891-6.185 13.891-13.979 0-8.095-5.373-13.826-13.587-13.826-4.917 0-7.249 2.06-8.162 3.068V9.101H0v34.944h6.793V33.888z" fill="currentColor"/></svg></svg>