<svg width="25" height="25" viewBox="0 0 25 25" fill="none" xmlns="http://www.w3.org/2000/svg">
<path fill-rule="evenodd" clip-rule="evenodd" d="M12.922 22.3395C18.262 22.1875 22.48 17.7175 22.326 12.3795C22.176 7.1335 17.862 2.9695 12.648 2.9695C12.554 2.9695 12.462 2.9715 12.368 2.9735C7.02796 3.1295 2.80796 7.5955 2.96396 12.9355C3.00996 14.5655 3.46796 16.1655 4.29196 17.5615L4.46796 17.8655L3.70196 22.0735L7.86596 21.0915L8.18196 21.2555C9.55196 21.9675 11.092 22.3435 12.644 22.3435C12.736 22.3435 12.83 22.3415 12.922 22.3395ZM20.756 4.1995C22.968 6.3195 24.244 9.1655 24.358 12.2275C24.464 15.2195 23.42 18.1575 21.44 20.4035C19.268 22.8655 16.244 24.2795 12.98 24.3735C12.87 24.3755 12.758 24.3775 12.644 24.3775C10.886 24.3775 9.14396 23.9795 7.56396 23.2195L1.43196 24.5855C1.42396 24.5875 1.41996 24.5875 1.41396 24.5875C1.35996 24.5875 1.31596 24.5415 1.32396 24.4855L2.36196 18.2835C1.47596 16.6655 0.981961 14.8455 0.929961 12.9935C0.839961 9.8655 1.97396 6.8855 4.12396 4.6115C6.35196 2.2515 9.39396 0.9375 12.654 0.9375H12.714C15.708 0.9515 18.596 2.1275 20.756 4.1995ZM17.887 15.1931C18.177 15.3491 18.369 15.4291 18.439 15.5531C18.511 15.6791 18.491 16.2671 18.225 16.9471C17.959 17.6271 16.739 18.2531 16.197 18.2851C16.039 18.2951 15.883 18.3171 15.679 18.3171C15.189 18.3171 14.427 18.1891 12.689 17.4411C9.73896 16.1691 7.94296 13.0451 7.80296 12.8431C7.66296 12.6431 6.65296 11.2111 6.69496 9.7631C6.74096 8.3151 7.52096 7.6271 7.80096 7.3391C8.06896 7.0671 8.37296 6.9951 8.57296 6.9951H8.59496C8.79296 7.0011 8.98896 7.0071 9.16096 7.0191C9.36896 7.0351 9.59896 7.0531 9.80696 7.5491C10.049 8.1391 10.577 9.6111 10.645 9.7611C10.715 9.9091 10.759 10.0831 10.655 10.2771C10.549 10.4711 10.499 10.5911 10.345 10.7591C10.193 10.9271 10.023 11.1351 9.88896 11.2611C9.73696 11.4031 9.57896 11.5591 9.74096 11.8571C9.90296 12.1571 10.463 13.1411 11.315 13.9471C12.407 14.9851 13.283 15.3251 13.631 15.4871C13.757 15.5471 13.861 15.5731 13.953 15.5731C14.079 15.5731 14.179 15.5211 14.273 15.4251C14.457 15.2391 15.009 14.5971 15.241 14.3011C15.361 14.1471 15.471 14.0911 15.591 14.0911C15.685 14.0911 15.787 14.1271 15.907 14.1731C16.173 14.2791 17.595 15.0371 17.887 15.1931Z" fill="white"/>
</svg>
